<svg xmlns="http://www.w3.org/2000/svg" width="1005" height="1100"><rect width="1005" height="1100" x="0" y="0" fill="#fff8cc" id="backgorund"/><g transform="translate(20,20)" id="viz"><g id="nodes"><g transform="translate(383.5,531)"><path id="p_1296" d="M-7.026411010107939e-14,382.5A382.5,382.5,0,1,1,7.026411010107939e-14,-382.5A382.5,382.5,0,1,1,-7.026411010107939e-14,382.5Z" fill="none" stroke="#ccc"/></g><g transform="translate(189.79403533459657,529.9760135856067)" id="I experienced Discrimination when using social media to learn about the Canadian labour market"><path id="p_763.5433636430666" d="M-8.224724484385764e-15,44.77331472286343A44.77331472286343,44.77331472286343,0,1,1,8.224724484385764e-15,-44.77331472286343A44.77331472286343,44.77331472286343,0,1,1,-8.224724484385764e-15,44.77331472286343Z" fill="#2ca02c" stroke="none"/></g><g transform="translate(324.61119011860234,529.9760135856067)" id="None of the above"><path id="p_937.8093854702145" d="M-1.547136379754176e-14,84.22218176600539A84.22218176600539,84.22218176600539,0,1,1,1.547136379754176e-14,-84.22218176600539A84.22218176600539,84.22218176600539,0,1,1,-1.547136379754176e-14,84.22218176600539Z" fill="#8c564b" stroke="none"/></g><g transform="translate(206.88415471756937,681.2534493926858)" id="I experienced Fraud Identity Theft Privacy or Security Threats when using social media to learn about the Canadian labour market"><path id="p_988.782359037654" d="M-1.867183856579344e-14,101.64475492739894A101.64475492739894,101.64475492739894,0,1,1,1.867183856579344e-14,-101.64475492739894A101.64475492739894,101.64475492739894,0,1,1,-1.867183856579344e-14,101.64475492739894Z" fill="#d62728" stroke="none"/></g><g transform="translate(200.4725915094375,356.15236290470466)" id="I did not have confidence in the information shared on social media when using it to learn about the Canadian labour market"><path id="p_679.1813325192826" d="M-2.2696938444105042e-14,123.5563781051404A123.5563781051404,123.5563781051404,0,1,1,2.2696938444105042e-14,-123.5563781051404A123.5563781051404,123.5563781051404,0,1,1,-2.2696938444105042e-14,123.5563781051404Z" fill="#1f77b4" stroke="none"/></g><g transform="translate(467.33036753529586,732.9136891867385)" id="I did not have the right skills knowledge or training when using social media to learn about the Canadian labour market"><path id="p_1357.2979066559578" d="M-2.903402121217433e-14,158.05384993392354A158.05384993392354,158.05384993392354,0,1,1,2.903402121217433e-14,-158.05384993392354A158.05384993392354,158.05384993392354,0,1,1,-2.903402121217433e-14,158.05384993392354Z" fill="#ff7f0e" stroke="none"/></g><g transform="translate(489.49811671624406,342.01101789185157)" id="I experienced Misinformation or Fake News (received wrong information) when using social media to learn about the Canadian labour market"><path id="p_990.5023681359901" d="M-2.939028019877566e-14,159.99323352789457A159.99323352789457,159.99323352789457,0,1,1,2.939028019877566e-14,-159.99323352789457A159.99323352789457,159.99323352789457,0,1,1,-2.939028019877566e-14,159.99323352789457Z" fill="#9467bd" stroke="none"/></g></g><g id="labels"><g transform="translate(189.79403533459657,529.9760135856067)"><text text-anchor="middle" dominant-baseline="text-before-edge" transform="translate(0,0)"/></g><g transform="translate(324.61119011860234,529.9760135856067)"><text text-anchor="middle" dominant-baseline="text-before-edge" transform="translate(0,0)"/></g><g transform="translate(206.88415471756937,681.2534493926858)"><text text-anchor="middle" dominant-baseline="text-before-edge" transform="translate(0,0)"/></g><g transform="translate(200.4725915094375,356.15236290470466)"><text text-anchor="middle" dominant-baseline="text-before-edge" transform="translate(0,0)"/></g><g transform="translate(467.33036753529586,732.9136891867385)"><text text-anchor="middle" dominant-baseline="text-before-edge" transform="translate(0,0)"/></g><g transform="translate(489.49811671624406,342.01101789185157)"><text text-anchor="middle" dominant-baseline="text-before-edge" transform="translate(0,0)"/></g></g></g><g id="legend" transform="translate(805,20)"><g transform="translate(5,0)"><g class="legendSize" transform="translate(0,0)"><g class="legendCells" transform="translate(50,21)"><g class="cell" transform="translate(0, 25)"><circle class="swatch" r="25" fill="none" stroke="#ccc"/><text class="label" transform="translate( 55,&#xA;          5)" font-family="&quot;Arial&quot;, sans-serif" font-size="10px"><tspan x="0" dy="0em">4.1</tspan></text></g><g class="cell" transform="translate(0, 125)"><circle class="swatch" r="50" fill="none" stroke="#ccc"/><text class="label" transform="translate( 55,&#xA;          5)" font-family="&quot;Arial&quot;, sans-serif" font-size="10px"><tspan x="0" dy="0em">16.2</tspan></text></g></g><text class="legendTitle" font-family="&quot;Arial&quot;, sans-serif" font-size="12px" font-weight="bold"><tspan x="0" dy="0em">value [sum]</tspan></text></g><g class="legendColor" transform="translate(0,233)"><g class="legendCells" transform="translate(0,36.599998474121094)"><g class="cell" transform="translate(0, 0)"><rect class="swatch" height="15" width="15" style="fill: rgb(31, 119, 180);"/><text class="label" transform="translate( 20, 12.5)" font-family="&quot;Arial&quot;, sans-serif" font-size="10px"><tspan x="0" dy="0em">I did not have</tspan><tspan x="0" dy="1.2em">confidence in the</tspan><tspan x="0" dy="1.2em">information shared</tspan><tspan x="0" dy="1.2em">on social media</tspan><tspan x="0" dy="1.2em">when using it to</tspan><tspan x="0" dy="1.2em">learn about the</tspan><tspan x="0" dy="1.2em">Canadian labour</tspan><tspan x="0" dy="1.2em">market</tspan></text></g><g class="cell" transform="translate(0, 135.20001220703125)"><rect class="swatch" height="15" width="15" style="fill: rgb(255, 127, 14);"/><text class="label" transform="translate( 20, 12.5)" font-family="&quot;Arial&quot;, sans-serif" font-size="10px"><tspan x="0" dy="0em">I did not have the</tspan><tspan x="0" dy="1.2em">right skills</tspan><tspan x="0" dy="1.2em">knowledge or</tspan><tspan x="0" dy="1.2em">training when using</tspan><tspan x="0" dy="1.2em">social media to</tspan><tspan x="0" dy="1.2em">learn about the</tspan><tspan x="0" dy="1.2em">Canadian labour</tspan><tspan x="0" dy="1.2em">market</tspan></text></g><g class="cell" transform="translate(0, 270.4000244140625)"><rect class="swatch" height="15" width="15" style="fill: rgb(44, 160, 44);"/><text class="label" transform="translate( 20, 12.5)" font-family="&quot;Arial&quot;, sans-serif" font-size="10px"><tspan x="0" dy="0em">I experienced</tspan><tspan x="0" dy="1.2em">Discrimination</tspan><tspan x="0" dy="1.2em">when using social</tspan><tspan x="0" dy="1.2em">media to learn</tspan><tspan x="0" dy="1.2em">about the Canadian</tspan><tspan x="0" dy="1.2em">labour market</tspan></text></g><g class="cell" transform="translate(0, 374.4000244140625)"><rect class="swatch" height="15" width="15" style="fill: rgb(214, 39, 40);"/><text class="label" transform="translate( 20, 12.5)" font-family="&quot;Arial&quot;, sans-serif" font-size="10px"><tspan x="0" dy="0em">I experienced Fraud</tspan><tspan x="0" dy="1.2em">Identity Theft</tspan><tspan x="0" dy="1.2em">Privacy or Security</tspan><tspan x="0" dy="1.2em">Threats when using</tspan><tspan x="0" dy="1.2em">social media to</tspan><tspan x="0" dy="1.2em">learn about the</tspan><tspan x="0" dy="1.2em">Canadian labour</tspan><tspan x="0" dy="1.2em">market</tspan></text></g><g class="cell" transform="translate(0, 509.60003662109375)"><rect class="swatch" height="15" width="15" style="fill: rgb(148, 103, 189);"/><text class="label" transform="translate( 20, 12.5)" font-family="&quot;Arial&quot;, sans-serif" font-size="10px"><tspan x="0" dy="0em">I experienced</tspan><tspan x="0" dy="1.2em">Misinformation or</tspan><tspan x="0" dy="1.2em">Fake News</tspan><tspan x="0" dy="1.2em">(received wrong</tspan><tspan x="0" dy="1.2em">information) when</tspan><tspan x="0" dy="1.2em">using social media</tspan><tspan x="0" dy="1.2em">to learn about the</tspan><tspan x="0" dy="1.2em">Canadian labour</tspan><tspan x="0" dy="1.2em">market</tspan></text></g><g class="cell" transform="translate(0, 660.4000396728516)"><rect class="swatch" height="15" width="15" style="fill: rgb(140, 86, 75);"/><text class="label" transform="translate( 20, 12.5)" font-family="&quot;Arial&quot;, sans-serif" font-size="10px"><tspan x="0" dy="0em">None of the above</tspan></text></g></g><text class="legendTitle" font-family="&quot;Arial&quot;, sans-serif" font-size="12px" font-weight="bold"><tspan x="0" dy="0em">Experience</tspan><tspan x="0" dy="1.2em">[csvDistinct]</tspan></text></g></g></g></svg>